<svg xmlns="http://www.w3.org/2000/svg" viewBox="0 0 100 100"><rect width="100" height="100" rx="22" fill="#0a0a0b"/><g transform="translate(17.08 13.35) scale(0.04337)" fill="#fafafa" fill-rule="evenodd"><path d="M504.5 1650.1C501.9 1648.5 394.2 1540.2 330.5 1475.0C248.9 1391.6 164.0 1305.0 146.5 1287.4C140.5 1281.3 114.1 1254.8 87.8 1228.4L40.2 1180.5L39.5 1112.0C39.1 1074.3 39.0 919.8 39.2 768.5C39.4 537.1 39.7 493.1 40.9 491.0C41.6 489.6 49.1 481.5 57.4 473.0C85.7 444.1 123.4 405.7 145.5 383.0C157.6 370.7 178.3 349.5 191.5 336.0C204.7 322.5 225.9 300.9 238.5 288.0C285.4 240.1 309.1 215.9 332.7 192.0C345.9 178.5 367.3 156.7 380.2 143.5C393.0 130.4 421.7 101.2 444.0 78.8L484.5 38.0L579.8 38.0C643.6 38.0 675.8 38.3 677.1 39.0C679.0 40.1 679.0 50.2 679.0 843.8C679.0 1569.6 678.8 1647.8 677.4 1649.8L675.9 1652.0L591.7 1652.0C511.6 1652.0 507.4 1651.9 504.5 1650.1ZM838.2 1650.8C837.3 1649.9 837.0 1469.5 837.0 845.4L837.0 41.1L839.2 39.6C841.2 38.2 852.1 38.0 936.3 38.0C1015.9 38.0 1031.5 38.2 1033.8 39.4C1035.3 40.2 1059.9 64.6 1088.4 93.7C1117.0 122.7 1145.4 151.4 1151.5 157.5C1157.6 163.6 1175.0 181.1 1190.1 196.5C1205.1 211.9 1237.1 244.3 1261.0 268.6C1313.4 321.7 1345.6 354.4 1364.9 374.5C1377.3 387.4 1430.7 442.1 1466.4 478.5C1472.3 484.6 1477.6 490.5 1478.1 491.8C1479.6 495.6 1479.2 1177.0 1477.7 1179.6C1477.0 1180.8 1473.8 1184.2 1470.5 1187.1C1461.0 1195.7 1320.1 1336.8 1268.5 1389.5C1242.7 1415.9 1206.4 1452.8 1187.8 1471.5C1169.3 1490.2 1152.9 1506.8 1151.4 1508.5C1147.3 1513.0 1082.9 1579.0 1053.3 1609.0C1038.9 1623.6 1024.3 1638.6 1020.9 1642.3C1017.4 1646.1 1013.4 1649.8 1011.9 1650.6C1009.5 1651.8 995.8 1652.0 924.2 1652.0C859.6 1652.0 839.1 1651.7 838.2 1650.8ZM957.3 1543.2C960.6 1540.0 971.8 1528.5 982.3 1517.5C992.8 1506.5 1010.4 1488.3 1021.4 1477.0C1032.5 1465.7 1049.6 1448.2 1059.4 1438.0C1114.1 1381.7 1294.1 1199.9 1352.8 1141.7L1378.0 1116.7L1377.8 961.1L1377.5 805.5L1231.7 805.0C1087.8 804.5 1085.8 804.5 1084.4 802.5C1082.3 799.7 1082.8 708.2 1084.9 705.7C1086.1 704.1 1097.5 704.0 1230.2 704.0C1327.5 704.0 1374.8 703.7 1376.1 703.0C1378.0 702.0 1378.0 700.1 1378.0 627.3L1378.0 552.8L1366.8 541.1C1355.6 529.5 1329.2 502.5 1287.5 460.0C1275.4 447.6 1259.9 431.6 1253.1 424.5C1246.2 417.4 1225.3 396.0 1206.6 377.0C1187.8 358.0 1160.4 330.1 1145.5 315.0C1130.7 299.9 1106.1 274.9 1091.0 259.5C1075.9 244.1 1046.0 213.5 1024.5 191.5C1003.1 169.5 982.8 148.7 979.5 145.3L973.3 139.0L956.1 139.0L939.0 139.0L938.0 141.4C936.8 144.7 936.7 1543.0 937.9 1546.4C939.0 1549.1 941.1 1549.7 947.5 1549.2C950.8 1548.9 952.5 1547.8 957.3 1543.2ZM578.1 1540.0C579.0 1528.3 578.5 141.6 577.6 140.1C577.1 139.4 572.0 139.0 561.6 139.0L546.4 139.0L515.4 170.2C498.4 187.4 472.3 214.1 457.5 229.5C442.7 244.9 428.1 260.0 425.1 263.1C406.9 281.2 275.9 414.1 263.5 427.0C239.7 451.6 204.0 488.0 171.6 520.7C155.1 537.3 141.3 551.6 140.8 552.4C139.4 554.9 139.7 700.9 141.1 702.6C142.1 703.8 164.5 704.0 287.6 704.0L432.9 704.0L434.4 706.2C435.8 708.2 436.0 714.5 436.0 755.7C436.0 801.4 435.9 803.0 434.1 804.0C432.8 804.7 385.2 805.0 287.3 805.0C175.9 805.0 142.1 805.3 141.2 806.2C140.3 807.1 140.0 843.2 140.0 962.4L140.0 1117.5L178.1 1156.0C199.1 1177.2 233.6 1212.0 254.9 1233.5C296.4 1275.4 317.7 1297.1 389.5 1370.5C414.8 1396.3 443.1 1425.4 452.5 1435.0C461.9 1444.6 474.3 1457.4 480.1 1463.5C485.8 1469.5 507.1 1491.2 527.5 1511.7L564.5 1549.1L571.0 1548.8L577.5 1548.5L578.1 1540.0Z"/></g></svg>